<svg viewBox="0 0 961 573" fill="none" xmlns="http://www.w3.org/2000/svg">
<g clip-path="url(#clip0_806_146)">
<g clip-path="url(#clip1_806_146)">
<path fill-rule="evenodd" clip-rule="evenodd" d="M315.692 37H339.22V144.952C327.168 147.234 318.296 148.132 308.696 148.132C279.959 148.102 265 135.25 265 110.568C265 86.7858 280.868 71.3516 305.456 71.3516C309.272 71.3516 312.179 71.6519 315.692 72.5527V37ZM315.692 91.3199C312.936 90.4191 310.665 90.1188 307.758 90.1188C295.857 90.1188 288.983 97.3855 288.983 110.12C288.983 122.519 295.554 129.365 307.606 129.365C310.211 129.365 312.33 129.218 315.692 128.767V91.3199ZM376.618 73.0031V127.053C376.618 145.667 375.225 154.618 371.137 162.335C367.322 169.755 362.295 174.433 351.908 179.601L330.075 169.302C340.462 164.47 345.489 160.2 348.699 153.684C352.06 147.021 353.12 139.304 353.12 119.005V73.0031H376.618ZM353.12 37.1201H376.649V61.0521H353.12V37.1201ZM390.817 78.318C401.207 73.4835 411.139 71.3516 421.98 71.3516C434.063 71.3516 441.993 74.5345 445.509 80.7502C447.477 84.2334 448.113 88.7676 448.113 98.4665V145.85C437.578 147.351 424.282 148.429 414.528 148.429C394.815 148.429 385.972 141.613 385.972 126.482C385.972 110.117 397.725 102.55 426.58 100.145V95.0103C426.58 90.7764 424.43 89.245 418.495 89.245C409.804 89.245 400.023 91.6773 390.848 96.3616L390.817 78.318ZM427.64 115.399C412.075 116.9 407.018 119.336 407.018 125.398C407.018 129.938 409.925 132.067 416.345 132.067C419.858 132.067 423.067 131.767 427.637 131.016V115.399H427.64ZM459.56 76.6364C473.459 73.0031 484.903 71.3516 496.5 71.3516C508.553 71.3516 517.277 74.0841 522.452 79.369C527.324 84.3535 528.875 89.8186 528.875 101.469V147.201H505.343V102.4C505.343 93.4519 502.284 90.1188 493.899 90.1188C490.686 90.1188 487.782 90.4191 483.058 91.8004V147.204H459.56V76.6364ZM538.02 159.93C546.253 164.164 554.493 166.119 563.214 166.119C578.627 166.119 585.199 159.903 585.199 145.069V144.619C580.626 146.871 576.02 147.805 569.934 147.805C549.315 147.805 536.203 134.322 536.203 112.973C536.203 86.4585 555.613 71.4747 589.953 71.4747C600.037 71.4747 609.363 72.5257 620.655 74.8078L612.6 91.6232C606.338 90.4221 612.086 91.4431 607.365 90.9926V93.4249L607.668 103.274L607.816 116.006C607.97 119.192 607.97 122.368 608.125 125.554V131.917C608.125 151.916 606.426 161.287 601.399 169.034C594.071 180.382 581.386 186 563.362 186C554.19 186 546.253 184.646 538.02 181.46V159.93ZM584.744 90.269H583.987H582.289C577.716 90.1188 572.359 91.3199 568.692 93.602C563.063 96.785 560.159 102.55 560.159 110.718C560.159 122.365 565.973 129.035 576.359 129.035C579.566 129.035 582.173 128.437 585.202 127.533V125.849V119.486C585.202 116.753 585.047 113.721 585.047 110.538L584.899 99.7877L584.744 92.0706V90.269ZM657.148 71.0513C680.646 71.0513 695 85.7348 695 109.517C695 133.899 680.044 149.18 656.206 149.18C632.677 149.18 618.169 134.5 618.169 110.871C618.209 86.3354 633.165 71.0513 657.148 71.0513ZM656.663 130.383C665.687 130.383 671.017 122.969 671.017 110.087C671.017 97.3555 665.836 89.7885 656.818 89.7885C647.491 89.7885 642.155 97.2054 642.155 110.087C642.155 122.969 647.518 130.383 656.663 130.383Z" fill="white"/>
</g>
</g>
<g clip-path="url(#clip2_806_146)">
<path d="M841.946 395.227C841.946 373.39 814.584 352.694 772.633 339.86C782.314 297.126 778.011 263.126 759.053 252.241C754.683 249.687 749.573 248.478 743.993 248.478V263.462C747.086 263.462 749.574 264.067 751.658 265.209C760.801 270.45 764.767 290.406 761.675 316.074C760.935 322.39 759.725 329.042 758.246 335.829C745.069 332.603 730.682 330.117 715.556 328.505C706.48 316.074 697.068 304.786 687.588 294.908C709.505 274.549 730.077 263.395 744.061 263.395V248.411C725.573 248.411 701.37 261.58 676.899 284.426C652.428 261.715 628.225 248.679 609.737 248.679V263.663C623.654 263.663 644.293 274.75 666.21 294.975C656.798 304.853 647.386 316.074 638.444 328.505C623.25 330.117 608.863 332.603 595.687 335.896C594.14 329.177 592.997 322.659 592.191 316.41C589.031 290.742 592.93 270.786 602.006 265.478C604.023 264.268 606.645 263.731 609.737 263.731V248.747C604.09 248.747 598.981 249.956 594.544 252.509C575.652 263.395 571.417 297.327 581.165 339.928C539.349 352.829 512.121 373.457 512.121 395.227C512.121 417.065 539.483 437.761 581.434 450.594C571.753 493.329 576.056 527.329 595.014 538.214C599.384 540.767 604.494 541.977 610.141 541.977C628.629 541.977 652.831 528.807 677.302 505.961C701.774 528.673 725.976 541.708 744.464 541.708C750.111 541.708 755.221 540.499 759.658 537.945C778.549 527.06 782.785 493.128 773.036 450.527C814.718 437.693 841.946 416.998 841.946 395.227V395.227ZM754.414 350.41C751.926 359.078 748.834 368.014 745.338 376.951C742.582 371.575 739.691 366.2 736.531 360.825C733.439 355.449 730.144 350.208 726.85 345.101C736.397 346.512 745.607 348.259 754.414 350.41ZM723.623 421.97C718.379 431.041 713.001 439.642 707.421 447.638C697.404 448.511 687.252 448.982 677.034 448.982C666.882 448.982 656.73 448.511 646.781 447.705C641.201 439.709 635.755 431.176 630.511 422.172C625.402 413.369 620.763 404.433 616.528 395.429C620.696 386.425 625.402 377.421 630.444 368.619C635.688 359.548 641.066 350.947 646.646 342.951C656.663 342.078 666.815 341.607 677.034 341.607C687.185 341.607 697.337 342.078 707.287 342.884C712.867 350.88 718.312 359.414 723.556 368.417C728.665 377.22 733.304 386.156 737.54 395.16C733.304 404.164 728.665 413.168 723.623 421.97ZM745.338 413.235C748.968 422.239 752.061 431.243 754.616 439.978C745.809 442.128 736.531 443.942 726.917 445.353C730.212 440.18 733.506 434.871 736.598 429.429C739.691 424.053 742.582 418.611 745.338 413.235ZM677.168 484.93C670.916 478.48 664.663 471.29 658.478 463.428C664.529 463.697 670.714 463.899 676.966 463.899C683.286 463.899 689.538 463.764 695.656 463.428C689.605 471.29 683.353 478.48 677.168 484.93ZM627.15 445.353C617.603 443.942 608.393 442.195 599.586 440.045C602.073 431.377 605.166 422.441 608.662 413.504C611.418 418.879 614.309 424.255 617.469 429.63C620.629 435.006 623.855 440.247 627.15 445.353ZM676.832 305.525C683.084 311.975 689.336 319.165 695.521 327.026C689.471 326.758 683.286 326.556 677.034 326.556C670.714 326.556 664.462 326.691 658.344 327.026C664.395 319.165 670.647 311.975 676.832 305.525ZM627.082 345.101C623.788 350.275 620.494 355.584 617.402 361.026C614.309 366.402 611.418 371.777 608.662 377.152C605.031 368.149 601.939 359.145 599.384 350.41C608.191 348.327 617.469 346.512 627.082 345.101ZM566.24 429.227C542.441 419.081 527.046 405.777 527.046 395.227C527.046 384.678 542.441 371.307 566.24 361.228C572.022 358.742 578.342 356.524 584.863 354.441C588.695 367.611 593.737 381.318 599.989 395.362C593.804 409.338 588.829 422.978 585.064 436.081C578.409 433.998 572.089 431.713 566.24 429.227ZM602.409 525.246C593.266 520.005 589.3 500.048 592.392 474.381C593.132 468.065 594.342 461.412 595.821 454.626C608.998 457.851 623.385 460.337 638.511 461.95C647.587 474.381 656.999 485.669 666.479 495.547C644.562 515.906 623.99 527.06 610.006 527.06C606.981 526.993 604.426 526.388 602.409 525.246V525.246ZM761.876 474.045C765.036 499.713 761.137 519.669 752.061 524.977C750.044 526.187 747.422 526.724 744.33 526.724C730.413 526.724 709.774 515.637 687.857 495.412C697.269 485.535 706.681 474.314 715.623 461.883C730.817 460.27 745.204 457.784 758.38 454.492C759.927 461.278 761.137 467.796 761.876 474.045V474.045ZM787.76 429.227C781.978 431.713 775.658 433.931 769.137 436.014C765.305 422.844 760.263 409.136 754.011 395.093C760.196 381.117 765.171 367.477 768.935 354.374C775.591 356.457 781.911 358.742 787.827 361.228C811.626 371.374 827.021 384.678 827.021 395.227C826.954 405.777 811.559 419.148 787.76 429.227V429.227Z" fill="#F2F2F2"/>
<path d="M676.967 425.934C693.935 425.934 707.69 412.186 707.69 395.227C707.69 378.268 693.935 364.52 676.967 364.52C659.999 364.52 646.243 378.268 646.243 395.227C646.243 412.186 659.999 425.934 676.967 425.934Z" fill="#F2F2F2"/>
</g>
<g clip-path="url(#clip3_806_146)">
<path d="M298.937 269.001L264.99 327.89L231.043 269.001H117.994L264.991 523.999L411.987 269.001H298.937Z" fill="white"/>
<path d="M298.937 269.001L264.99 327.89L231.043 269.001H176.793L264.991 421.996L353.188 269.001H298.937Z" fill="#4D4D4D"/>
</g>
<defs>
<clipPath id="clip0_806_146">
<rect width="430" height="149" fill="white" transform="translate(265 37)"/>
</clipPath>
<clipPath id="clip1_806_146">
<rect width="430" height="149" fill="white" transform="translate(265 37)"/>
</clipPath>
<clipPath id="clip2_806_146">
<rect width="330" height="294" fill="white" transform="translate(512 248)"/>
</clipPath>
<clipPath id="clip3_806_146">
<rect width="294" height="255" fill="white" transform="translate(118 269)"/>
</clipPath>
</defs>
</svg>
