<svg width="60" height="100" viewBox="0 0 103 118" fill="none" xmlns="http://www.w3.org/2000/svg">
<path d="M10.301 37.4604H6.59319C6.59319 41.088 3.63553 44.0392 0 44.0392V47.7389C3.63553 47.7389 6.59319 50.69 6.59319 54.3176H10.301C10.301 50.69 13.2586 47.7389 16.8942 47.7389V44.0392C13.2586 44.0392 10.301 41.088 10.301 37.4604ZM8.44709 48.4408C7.75114 47.4481 6.88461 46.5832 5.8895 45.889C6.88438 45.1946 7.75114 44.33 8.44709 43.3373C9.14304 44.33 10.0096 45.1948 11.0044 45.889C10.0096 46.5834 9.14304 47.4478 8.44709 48.4408Z" fill="white"/>
<path d="M93.8333 37.4604H90.1255C90.1255 41.6043 86.7469 44.9757 82.5938 44.9757V48.6754C86.7467 48.6754 90.1255 52.0466 90.1255 56.1906H93.8333C93.8333 52.0468 97.2119 48.6754 101.365 48.6754V44.9757C97.2124 44.9757 93.8333 41.6043 93.8333 37.4604ZM91.9794 50.0265C91.1385 48.7557 90.045 47.6649 88.7716 46.8258C90.0453 45.9867 91.1385 44.8956 91.9794 43.625C92.8204 44.8959 93.9138 45.9867 95.1872 46.8258C93.9138 47.6649 92.8206 48.7557 91.9794 50.0265Z" fill="white"/>
<path d="M37.543 54.3402V58.0399C41.6959 58.0401 45.0747 61.4113 45.0747 65.5554H48.7825C48.7825 61.4115 52.1611 58.0401 56.3143 58.0401V54.3404C52.1614 54.3404 48.7825 50.9692 48.7825 46.8252H45.0747C45.0745 50.969 41.6959 54.3402 37.543 54.3402ZM46.9284 52.9893C47.7693 54.2601 48.8628 55.3509 50.1362 56.19C48.8625 57.0292 47.7693 58.1202 46.9284 59.3908C46.0874 58.12 44.994 57.0292 43.7206 56.19C44.9942 55.3512 46.0874 54.2601 46.9284 52.9893Z" fill="white"/>
<path d="M65.6767 65.5557H61.9689C61.9689 78.9946 51.0116 89.928 37.543 89.928V93.6277C51.0114 93.6277 61.9689 104.561 61.9689 118H65.6767C65.6767 104.561 76.634 93.6277 90.1026 93.6277V89.928C76.634 89.928 65.6767 78.9946 65.6767 65.5557ZM63.8226 107.975C60.9667 100.548 55.0336 94.6274 47.5901 91.7781C55.0336 88.9286 60.967 83.0084 63.8226 75.5812C66.6784 83.0084 72.6115 88.9288 80.0551 91.7781C72.6118 94.6274 66.6786 100.548 63.8226 107.975Z" fill="white"/>
<path d="M20.6725 41.2064H24.3803C24.3803 30.8657 32.8114 22.453 43.1746 22.453V18.7533C32.8112 18.7533 24.3803 10.3407 24.3803 0H20.6725C20.6725 10.3407 12.2413 18.7533 1.87793 18.7533V22.453C12.2411 22.453 20.6725 30.8657 20.6725 41.2064ZM22.5264 8.92398C24.7998 14.141 29.0027 18.3347 34.2312 20.6032C29.0025 22.8716 24.7998 27.0653 22.5264 32.2824C20.2529 27.0653 16.05 22.8716 10.8215 20.6032C16.0498 18.3347 20.2529 14.141 22.5264 8.92398Z" fill="white"/>
</svg>
